# xmcd
#
# Track frame offsets: 
#        150
#        16836
#        37842
#        57251
#        80288
#        103415
#        119290
#        142474
#        161093
#
# Disc length: 2433 seconds
#
# Revision: 2
# Processed by: cddbd v1.5.2PL0 Copyright (c) Steve Scherf et al.
# Submitted via: ExactAudioCopy v1.0b3
#
DISCID=76097f09
DTITLE=Soulive - Up Here
DYEAR=2009
DGENRE=Jazz
TTITLE0=Up Right
TTITLE1=The Swamp
TTITLE2=Too Much
TTITLE3=Backwards Jack
TTITLE4=PJ's
TTITLE5=Tonight
TTITLE6=Hat Trick
TTITLE7=For Granted
TTITLE8=Prototype
EXTD=YEAR: 2009
EXTT0=
EXTT1=
EXTT2=
EXTT3=
EXTT4=
EXTT5=
EXTT6=
EXTT7=
EXTT8=
PLAYORDER=
